<?xml version="1.0" encoding="UTF-8"?>
<svg width="48" height="48" viewBox="0 0 100 100" fill="none" xmlns="http://www.w3.org/2000/svg">
  <!-- Cérebro base -->
  <path d="M30,50 C30,30 45,25 50,25 C55,25 70,30 70,50 C70,70 55,75 50,75 C45,75 30,70 30,50" 
        stroke="#88786D" stroke-width="2" fill="none"/>
  
  <!-- Flores -->
  <g transform="translate(35,30)">
    <!-- Flor 1 -->
    <path d="M0,0 C-3,-3 -3,-8 0,-10 C3,-8 3,-3 0,0" 
          stroke="#88786D" stroke-width="1.5" fill="none"/>
    <path d="M0,0 C3,-3 8,-3 10,0 C8,3 3,3 0,0" 
          stroke="#88786D" stroke-width="1.5" fill="none"/>
  </g>
  
  <g transform="translate(55,35)">
    <!-- Flor 2 -->
    <path d="M0,0 C-3,-3 -3,-8 0,-10 C3,-8 3,-3 0,0" 
          stroke="#88786D" stroke-width="1.5" fill="none"/>
    <path d="M0,0 C3,-3 8,-3 10,0 C8,3 3,3 0,0" 
          stroke="#88786D" stroke-width="1.5" fill="none"/>
  </g>
  
  <g transform="translate(45,45)">
    <!-- Flor 3 -->
    <path d="M0,0 C-3,-3 -3,-8 0,-10 C3,-8 3,-3 0,0" 
          stroke="#88786D" stroke-width="1.5" fill="none"/>
    <path d="M0,0 C3,-3 8,-3 10,0 C8,3 3,3 0,0" 
          stroke="#88786D" stroke-width="1.5" fill="none"/>
  </g>
</svg> 